Coordinates
version=1
nRows=13
nColumns=40
inDegrees=yes

Units are S.I. units (second, meters, Newtons, ...)
Angles are in degrees.

endheader
time	pelvis_tilt	pelvis_list	pelvis_rotation	pelvis_tx	pelvis_ty	pelvis_tz	hip_flexion_r	hip_adduction_r	hip_rotation_r	knee_angle_r	knee_angle_r_beta	ankle_angle_r	subtalar_angle_r	mtp_angle_r	hip_flexion_l	hip_adduction_l	hip_rotation_l	knee_angle_l	knee_angle_l_beta	ankle_angle_l	subtalar_angle_l	mtp_angle_l	lumbar_extension	lumbar_bending	lumbar_rotation	arm_flex_r	arm_add_r	arm_rot_r	elbow_flex_r	pro_sup_r	wrist_flex_r	wrist_dev_r	arm_flex_l	arm_add_l	arm_rot_l	elbow_flex_l	pro_sup_l	wrist_flex_l	wrist_dev_l
     17.21000000	     -4.15818020	     -5.73138422	      2.51923471	      0.97138886	      0.93066834	      0.50448317	     12.84540727	      4.47618951	    -15.33606036	     14.05576525	     14.05576525	      7.87929744	      0.51709842	     -6.00847879	     33.31738714	    -10.91110417	      3.48446429	     59.98212217	     59.98212217	     10.04709303	    -18.38040292	     13.30375083	    -10.96873855	      5.87388673	      2.39103533	     12.07595337	    -16.60291327	      0.61745304	     65.91951516	     45.51015089	      0.00000000	      0.00000000	      3.53163479	     -7.73150922	     -8.08485260	     36.17050270	     45.33570077	      0.00000000	      0.00000000
     17.22207143	     -4.28092445	     -5.63592025	      2.83371080	      0.97007880	      0.93086063	      0.50469284	     12.39023297	      4.45230047	    -15.36347738	     13.78335636	     13.78335636	      8.11371139	      0.29283453	     -6.06287456	     34.16515279	    -10.64461315	      3.38562261	     56.88973995	     56.88973995	     10.17309347	    -18.45677289	     12.88558203	    -10.96370307	      5.79724994	      2.37202499	     13.35176697	    -17.15731600	      1.25627515	     69.90641901	     45.35397807	      0.00000000	      0.00000000	      2.95169454	     -7.71343134	     -8.21423672	     34.71832425	     45.39613181	      0.00000000	      0.00000000
     17.23414286	     -4.40658680	     -5.56579350	      3.13970360	      0.96881430	      0.93099963	      0.50489163	     11.92375526	      4.45341282	    -15.45256996	     13.48006854	     13.48006854	      8.37505706	      0.20782511	     -6.01924017	     34.76047180	    -10.36913460	      3.27427093	     53.41614369	     53.41614369	     10.15684370	    -18.45643029	     12.43173655	    -10.94048413	      5.75138013	      2.34557190	     14.79480026	    -17.52688690	      1.54434440	     73.53425331	     45.23102627	      0.00000000	      0.00000000	      2.37900301	     -7.70313474	     -8.31997231	     33.15469362	     45.44590819	      0.00000000	      0.00000000
     17.24621429	     -4.49865769	     -5.45876445	      3.40922378	      0.96765568	      0.93117230	      0.50506969	     11.43153036	      4.41443689	    -15.52635677	     13.20395439	     13.20395439	      8.64390288	      0.16150753	     -5.94432227	     35.05440749	    -10.02571482	      3.12501750	     49.61822036	     49.61822036	     10.07793563	    -18.39105241	     12.10199917	    -10.97055248	      5.65122209	      2.38983407	     16.19897095	    -17.88910714	      1.73653244	     76.95015813	     45.12359036	      0.00000000	      0.00000000	      1.92037737	     -7.70024534	     -8.43376555	     31.62759822	     45.49628505	      0.00000000	      0.00000000
     17.25828571	     -4.59584534	     -5.38619734	      3.64757456	      0.96659523	      0.93121763	      0.50516167	     10.95235618	      4.39640773	    -15.61608454	     12.95228103	     12.95228103	      8.96543835	      0.21474321	     -5.86117993	     35.15798885	     -9.67815910	      3.02644870	     45.60900302	     45.60900302	      9.88006468	    -18.20772613	     11.56564862	    -10.97082138	      5.63374951	      2.64347664	     17.63428446	    -18.39514657	      1.82853635	     80.50796095	     45.02277738	      0.00000000	      0.00000000	      1.58560250	     -7.63407742	     -8.59439735	     29.94306381	     45.56764787	      0.00000000	      0.00000000
     17.27035714	     -4.84517390	     -5.67783859	      3.86334849	      0.96558472	      0.93061286	      0.50543245	     10.80492174	      4.73849870	    -15.75271424	     12.96121279	     12.96121279	      9.28724362	      0.10594987	     -5.99501017	     35.56937172	     -9.69209552	      3.14459917	     41.90470057	     41.90470057	     10.28345378	    -17.34039116	     11.89917495	    -10.59434259	      5.96572194	      3.16524501	     19.30680129	    -18.66509241	      1.53615602	     81.41330570	     45.01068800	      0.00000000	      0.00000000	      0.88255290	     -7.63673480	     -8.60922896	     29.60172779	     45.56104774	      0.00000000	      0.00000000
     17.28242857	     -4.82506065	     -5.27626882	      4.02029513	      0.96480386	      0.93103923	      0.50523411	     10.02980321	      4.38166365	    -15.85036419	     12.45345005	     12.45345005	      9.57352455	      0.54070690	     -5.76158524	     34.97995994	     -8.96714194	      2.89948779	     37.33080261	     37.33080261	      9.49383896	    -17.19504909	     10.78857233	    -10.91101764	      5.58239670	      2.79998930	     20.84907106	    -18.89136268	      2.15936124	     86.52570698	     44.85239034	      0.00000000	      0.00000000	      0.50328124	     -7.63589762	     -8.75082233	     27.49569798	     45.63697871	      0.00000000	      0.00000000
     17.29450000	     -4.95075869	     -5.22961810	      4.16979081	      0.96403053	      0.93084433	      0.50518024	      9.59304285	      4.38361058	    -15.89412537	     12.23129891	     12.23129891	      9.83913121	      0.57590160	     -5.79833767	     34.80350823	     -8.64513204	      2.77695447	     33.31115640	     33.31115640	      9.58071385	    -16.03074069	     11.09967977	    -10.81996432	      5.52015924	      2.75980534	     22.75841421	    -18.70303243	      1.97564389	     88.33700334	     44.81186642	      0.00000000	      0.00000000	     -0.27502561	     -7.72640073	     -8.76722119	     26.84830034	     45.63696543	      0.00000000	      0.00000000
     17.30657143	     -5.02773863	     -5.24267464	      4.31194436	      0.96346429	      0.93060228	      0.50506910	      9.05563636	      4.44535379	    -16.04343148	     11.94046634	     11.94046634	     10.09864900	      0.83878106	     -5.80543163	     34.52754250	     -8.39874146	      2.64546910	     29.45378558	     29.45378558	      9.65993746	    -14.58225921	     11.10257371	    -10.76758403	      5.55107789	      2.59815076	     24.62199547	    -18.50386443	      2.15096544	     90.86518777	     44.73908992	      0.00000000	      0.00000000	     -1.02750654	     -7.76422937	     -8.77618021	     26.09266629	     45.64064906	      0.00000000	      0.00000000
     17.31864286	     -5.15901218	     -5.24945998	      4.41131320	      0.96295599	      0.93022345	      0.50494154	      8.59012831	      4.49646209	    -16.14703449	     11.68549839	     11.68549839	     10.39183258	      1.07132548	     -5.84161942	     34.32001216	     -8.19249538	      2.37209048	     25.89566722	     25.89566722	      9.67274066	    -12.85342764	     11.22611160	    -10.62920557	      5.53669549	      2.64701931	     26.40084144	    -18.42812877	      2.27650548	     92.92931253	     44.68126444	      0.00000000	      0.00000000	     -1.70994657	     -7.77881837	     -8.77870631	     25.53052758	     45.63997565	      0.00000000	      0.00000000
     17.33071429	     -5.20107119	     -5.30529887	      4.50162626	      0.96263251	      0.92988141	      0.50471008	      7.99753877	      4.60210325	    -16.29797680	     11.39437593	     11.39437593	     10.68584919	      1.43531296	     -5.84754311	     34.05011549	     -8.06975939	      1.94916442	     22.72731348	     22.72731348	      9.63705470	    -10.97052730	     11.24388476	    -10.60787262	      5.61121924	      2.60456735	     28.13416176	    -18.24070666	      2.56035871	     95.25590035	     44.61132209	      0.00000000	      0.00000000	     -2.40508678	     -7.82352035	     -8.77178170	     24.96970328	     45.63890405	      0.00000000	      0.00000000
     17.34278571	     -5.22786395	     -5.48906636	      4.57899640	      0.96246050	      0.92941074	      0.50443242	      7.37022849	      4.82556345	    -16.63201730	     11.09522370	     11.09522370	     11.16381423	      2.18505999	     -5.39596751	     33.86229139	     -8.11117610	      1.39444172	     20.05562464	     20.05562464	      9.04197009	     -9.11288451	      9.83170307	    -10.60407253	      5.84714681	      2.91416196	     29.53822958	    -18.58280091	      3.00815997	     98.46047032	     44.55441822	      0.00000000	      0.00000000	     -2.83923180	     -7.80097159	     -8.62524070	     24.28653806	     45.68220256	      0.00000000	      0.00000000
     17.35485714	     -5.27340805	     -5.51477624	      4.62337925	      0.96232614	      0.92898467	      0.50404603	      6.78626244	      4.89807615	    -16.67152474	     10.84644827	     10.84644827	     11.45836423	      2.39926185	     -5.43633399	     33.67833042	     -7.96783879	      0.84464702	     17.87408979	     17.87408979	      8.88228213	     -7.60086513	     10.14947126	    -10.52009716	      5.86508947	      2.93897368	     31.27226858	    -18.20709402	      3.03013757	     99.89706931	     44.52179799	      0.00000000	      0.00000000	     -3.46979382	     -7.79871899	     -8.58812970	     23.99057635	     45.67297817	      0.00000000	      0.00000000
